<svg width="16" height="16" viewBox="0 0 16 16" fill="none" xmlns="http://www.w3.org/2000/svg">
<path fill-rule="evenodd" clip-rule="evenodd" d="M8.00008 0C12.4183 0 16 3.57904 16 7.994C16 12.3811 12.4636 15.9425 8.08401 15.9875C7.99958 15.9962 7.91216 16.001 7.82151 16.001C7.4986 16.001 7.22747 15.9736 7.00487 15.9267C3.05622 15.4371 0 12.0723 0 7.994C0 3.57904 3.58176 0 8.00008 0ZM14.7002 6.93839C14.7804 7.31782 14.8331 7.70825 14.8561 8.10711C14.8567 8.06946 14.8571 8.03179 14.8571 7.994C14.8571 7.50047 14.8048 7.01915 14.7056 6.55521C14.7092 6.67455 14.7073 6.80291 14.7002 6.93839ZM1.14288 7.994C1.14288 7.50946 1.19333 7.03672 1.28906 6.58061C1.58518 6.89732 2.28314 6.88985 2.45336 6.41664C2.53779 6.46696 2.63027 6.50587 2.71984 6.54356C2.95338 6.64182 3.1672 6.73178 3.1672 6.99401C3.1672 8.19137 3.20983 9.47505 4.29776 9.49488C4.32839 9.49528 4.90447 9.71321 5.17864 10.4242C5.23807 10.5783 5.40759 10.5392 5.62711 10.4886L5.62713 10.4886C5.75779 10.4585 5.90618 10.4242 6.0596 10.4242C6.17731 10.4242 6.16003 10.5379 6.12387 10.7759C6.09696 10.953 6.0596 11.1989 6.0596 11.5179C6.0596 12.2629 7.66569 13.4099 7.66569 13.4099C7.65825 13.903 7.67849 14.3018 7.71953 14.6203C7.357 14.6136 7.05148 14.6617 6.81145 14.7434C3.5909 14.181 1.14288 11.3733 1.14288 7.994ZM9.21337 14.442C9.49712 14.3674 9.65264 14.4627 9.68819 14.6368C12.0471 14.04 13.9188 12.2217 14.5897 9.89483C14.0622 11.0246 12.9927 11.2912 13.221 10.6254C13.0113 10.2847 12.6891 9.81032 12.3512 9.49488C11.709 8.89481 11.2087 7.8469 13.1633 6.34441C12.7985 5.36833 13.8738 4.56746 14.3169 5.67409C14.3795 5.6804 14.4338 5.70624 14.4804 5.74877C13.5585 3.09172 11.0465 1.17722 8.08199 1.14253C9.54733 1.29592 9.65581 2.72901 8.67032 2.5749C8.64681 2.9241 8.61168 3.39394 8.56928 3.79962C8.52449 4.23017 8.19628 4.32542 7.89368 4.41324C7.69851 4.46988 7.514 4.52343 7.42304 4.66185C7.19649 5.00633 7.84344 5.37281 8.57568 5.20377C8.68207 5.17899 8.6774 5.10455 8.67301 5.03452C8.66933 4.97591 8.66584 4.92039 8.72784 4.89969C9.13104 4.7644 9.63496 4.81672 9.65961 4.88008C9.68995 4.95872 9.463 5.35797 9.14727 5.91339C9.0111 6.15294 8.85841 6.42154 8.70273 6.706C8.61275 6.87054 8.64673 7.12982 8.67659 7.35769C8.69008 7.46064 8.70273 7.55718 8.70273 7.63568C8.70273 9.12893 8.22018 8.25585 7.87962 7.63967C7.73535 7.37864 7.61656 7.16371 7.57073 7.19432C7.47693 7.25684 7.22786 7.19522 6.97982 7.13385C6.78952 7.08676 6.59982 7.03983 6.48129 7.04921C6.34356 7.06027 6.30774 7.20616 6.2725 7.34966C6.23661 7.49581 6.20133 7.63949 6.0596 7.63569C5.73511 7.62789 5.65867 7.57468 5.65014 7.58396C5.6451 7.58943 5.66374 7.61669 5.66897 7.68793C5.67282 7.74063 5.67995 7.81082 5.68872 7.89721C5.71973 8.20241 5.77129 8.70989 5.77129 9.36321C5.77129 9.51736 5.96704 9.46175 6.20599 9.39386C6.37044 9.34714 6.55534 9.29461 6.71097 9.30065C6.99875 9.31129 7.21678 9.47348 7.41309 9.61952C7.51061 9.69207 7.60277 9.76062 7.69546 9.80464C7.94272 9.92223 8.17924 10.145 8.39848 10.3515C8.6464 10.585 8.87222 10.7977 9.06649 10.814C9.24186 10.8291 9.27374 10.9677 9.30445 11.1012C9.33784 11.2464 9.36985 11.3856 9.58353 11.3533C10.1039 11.2757 10.7063 11.9349 10.0225 12.5277C9.56952 12.9207 9.44957 13.4331 9.24108 14.3238C9.23202 14.3625 9.2228 14.4019 9.21337 14.442Z" fill="black" style="fill:black;fill-opacity:1;"/>
</svg>
