<svg width="6" height="10" viewBox="0 0 6 10" fill="none" xmlns="http://www.w3.org/2000/svg">
<path d="M1.69071 0.283877C1.5751 0.169695 1.42795 0.107415 1.25453 0.107415C0.907683 0.107415 0.629156 0.377298 0.629156 0.719841C0.629156 0.891113 0.702729 1.04681 0.823599 1.16619L4.50226 4.71618L0.8236 8.2558C0.70273 8.37518 0.629157 8.53607 0.629157 8.70215C0.629157 9.04469 0.907684 9.31458 1.25453 9.31458C1.42795 9.31458 1.5751 9.25229 1.69071 9.13811L5.77928 5.19367C5.92643 5.05873 5.99474 4.89265 6 4.71099C6 4.52934 5.92643 4.37364 5.77928 4.23351L1.69071 0.283877Z" fill="black" style="fill:black;fill:black;fill-opacity:1;"/>
</svg>
