<svg width="18" height="12" viewBox="0 0 18 12" fill="none" xmlns="http://www.w3.org/2000/svg">
<path d="M12.7133 3.78811C12.7133 3.84528 12.654 3.94533 12.5353 4.08826C12.4166 4.23119 12.2894 4.39985 12.1537 4.59424C12.0181 4.78862 11.8909 5.00016 11.7722 5.22885C11.6535 5.45754 11.5942 5.69194 11.5942 5.93207C11.5942 6.17219 11.6535 6.40374 11.7722 6.62671C11.8909 6.84968 12.0181 7.05264 12.1537 7.2356C12.2894 7.41855 12.4166 7.57005 12.5353 7.69011C12.654 7.81018 12.7133 7.88736 12.7133 7.92166V9.72259C12.7133 9.91697 12.6427 10.1371 12.5014 10.3829C12.3601 10.6288 12.1848 10.8603 11.9757 11.0776C11.7666 11.2948 11.5348 11.4749 11.2805 11.6178C11.0261 11.7608 10.7859 11.8322 10.5598 11.8322H2.13229C1.82707 11.8322 1.54728 11.7779 1.29293 11.6693C1.03858 11.5607 0.815315 11.4092 0.623139 11.2148C0.430963 11.0204 0.281177 10.7917 0.173785 10.5287C0.0663918 10.2657 0.0126953 9.97986 0.0126953 9.67113V2.27876C0.0126953 2.05007 0.0635656 1.81281 0.165306 1.56697C0.267047 1.32113 0.411179 1.0953 0.597704 0.889476C0.784228 0.683656 1.00467 0.512139 1.25902 0.374926C1.51337 0.237712 1.79316 0.169106 2.09838 0.169106H10.5259C10.8311 0.169106 11.1166 0.223419 11.3822 0.332046C11.6479 0.440674 11.8796 0.589322 12.0774 0.77799C12.2753 0.966658 12.4307 1.19249 12.5437 1.45548C12.6568 1.71847 12.7133 1.99862 12.7133 2.29591V3.78811ZM17.9869 2.17585V10.0142C17.9869 10.2657 17.9219 10.4887 17.7919 10.6831C17.6619 10.8775 17.4669 10.9747 17.2069 10.9747C17.1164 10.9747 17.0006 10.9404 16.8592 10.8718C16.7179 10.8031 16.5766 10.7231 16.4353 10.6316C16.294 10.5402 16.1612 10.4487 16.0368 10.3572C15.9125 10.2657 15.8221 10.1914 15.7655 10.1342C15.6186 10.0084 15.3953 9.79119 15.0957 9.48246C14.7962 9.17373 14.4938 8.82498 14.1886 8.43621C13.8833 8.04744 13.6149 7.64724 13.3831 7.2356C13.1514 6.82396 13.0355 6.44662 13.0355 6.10358C13.0355 5.76055 13.1598 5.36892 13.4085 4.9287C13.6572 4.48847 13.9568 4.05682 14.3073 3.63374C14.6577 3.21067 15.0251 2.81904 15.4094 2.45885C15.7938 2.09867 16.116 1.8271 16.376 1.64415C16.4777 1.57554 16.6162 1.49264 16.7914 1.39545C16.9666 1.29826 17.1221 1.24966 17.2577 1.24966C17.563 1.24966 17.7608 1.33542 17.8512 1.50694C17.9417 1.67845 17.9869 1.88999 17.9869 2.14155V2.17585Z" fill="#147AFF" style="fill:#147AFF;fill:color(display-p3 0.0784 0.4784 1.0000);fill-opacity:1;"/>
</svg>
