<svg width="16" height="16" viewBox="0 0 16 16" fill="none" xmlns="http://www.w3.org/2000/svg">
<path fill-rule="evenodd" clip-rule="evenodd" d="M0.820502 1.908L2.4211 0.335447C2.84833 -0.110789 3.54101 -0.110788 3.96825 0.335448L6.55252 3.03465C6.97975 3.48089 6.97975 4.20438 6.55252 4.65061L5.40756 5.84649C5.89906 6.92709 6.58667 7.90985 7.44288 8.73564C8.3911 9.65016 9.50662 10.3341 10.7098 10.7549L11.7569 9.66126C12.1841 9.21502 12.8768 9.21502 13.304 9.66126L15.6796 12.1424C16.1068 12.5887 16.1068 13.3122 15.6796 13.7584L13.9485 15.6199C13.9389 15.6199 13.9581 15.6199 13.9485 15.6199C13.7709 15.8055 13.5385 15.9293 13.2854 15.9734L13.128 16.0008C9.75381 15.9708 6.84954 14.6061 4.36844 12.2132C1.859 9.79292 0.271627 6.98782 0 3.43154C0 2.94579 0.202278 2.48197 0.558263 2.15147L0.820502 1.908Z" fill="#147AFF" style="fill:#147AFF;fill:color(display-p3 0.0784 0.4784 1.0000);fill-opacity:1;"/>
</svg>
